<svg height="512pt" viewBox="0 0 512 512" width="512pt" xmlns="http://www.w3.org/2000/svg" xmlns:xlink="http://www.w3.org/1999/xlink"><linearGradient id="a" gradientTransform="matrix(1 0 0 -1 0 -9688)" gradientUnits="userSpaceOnUse" x1="0" x2="512" y1="-9944" y2="-9944"><stop offset="0" stop-color="#31d8ff"/><stop offset="1" stop-color="#ff80ff"/></linearGradient><path d="m512 256c0 141.386719-114.613281 256-256 256s-256-114.613281-256-256 114.613281-256 256-256 256 114.613281 256 256zm0 0" fill="url(#a)"/><g fill="#fff"><path d="m256 454c-2.609375 0-5.21875-.679688-7.554688-2.039062l-124.667968-72.667969c-4.089844-2.382813-6.8125-6.554688-7.347656-11.257813l-26.605469-232.640625c-.683594-6.003906 2.300781-11.835937 7.574219-14.789062 42.136718-23.605469 98.464843-36.605469 158.601562-36.605469s116.464844 13 158.601562 36.605469c5.273438 2.953125 8.257813 8.785156 7.574219 14.789062l-26.605469 232.640625c-.535156 4.703125-3.257812 8.875-7.347656 11.257813l-124.667968 72.667969c-2.335938 1.359374-4.945313 2.039062-7.554688 2.039062zm-110.621094-96.839844 110.621094 64.480469 110.621094-64.480469 24.582031-214.984375c-75.839844-37.566406-194.566406-37.566406-270.40625 0zm0 0"/><path d="m178.507812 266.917969v-38.769531c0-25.164063 15.652344-34.527344 35.839844-34.527344 20.183594 0 35.984375 9.363281 35.984375 34.527344v38.769531c0 25.160156-15.800781 34.523437-35.984375 34.523437-20.1875 0-35.839844-9.363281-35.839844-34.523437zm49.003907-38.769531c0-10.09375-4.972657-14.628907-13.164063-14.628907-8.195312 0-13.023437 4.535157-13.023437 14.628907v38.769531c0 10.09375 4.828125 14.628906 13.023437 14.628906 8.191406 0 13.164063-4.535156 13.164063-14.628906zm0 0"/><path d="m264.960938 200.496094c0-4.824219 5.703124-6.875 11.410156-6.875 5.703125 0 11.410156 2.050781 11.410156 6.875v35.113281l27.355469-38.769531c1.609375-2.339844 3.65625-3.21875 6-3.21875 5.847656 0 13.457031 6 13.457031 11.703125 0 1.171875-.292969 2.78125-1.464844 4.390625l-23.988281 30.136718 30.28125 46.375c.730469 1.171876 1.167969 2.488282 1.167969 3.804688 0 5.707031-7.167969 11.410156-13.75 11.410156-3.074219 0-6-1.167968-7.898438-4.242187l-25.015625-38.035157-6.144531 7.898438v26.480469c0 4.679687-5.707031 7.023437-11.410156 7.023437-5.707032 0-11.410156-2.34375-11.410156-7.023437zm0 0"/></g></svg>