<?xml version="1.0" encoding="iso-8859-1"?>
<!-- Generator: Adobe Illustrator 19.0.0, SVG Export Plug-In . SVG Version: 6.00 Build 0)  -->
<svg version="1.1" id="Capa_1" xmlns="http://www.w3.org/2000/svg" xmlns:xlink="http://www.w3.org/1999/xlink" x="0px" y="0px"
	 viewBox="0 0 512 512" style="enable-background:new 0 0 512 512;" xml:space="preserve">
<linearGradient id="SVGID_1_" gradientUnits="userSpaceOnUse" x1="76" y1="258" x2="436" y2="258" gradientTransform="matrix(1 0 0 -1 0 514)">
	<stop  offset="0" style="stop-color:#80D8FF"/>
	<stop  offset="1" style="stop-color:#EA80FC"/>
</linearGradient>
<path style="fill:url(#SVGID_1_);" d="M245.709,509.15l-160-96C79.686,409.535,76,403.025,76,396V20C76,8.954,84.954,0,96,0h320
	c11.046,0,20,8.954,20,20v376c0,7.025-3.686,13.536-9.71,17.15l-160.001,96C259.956,512.95,252.044,512.95,245.709,509.15z
	 M116,384.676l140,84l140-84V40H116V384.676z M416,396h0.01H416z M241.179,319.868l99.453-99.452c7.81-7.811,7.81-20.474,0-28.284
	c-7.811-7.811-20.475-7.811-28.285,0l-85.31,85.31l-27.384-27.384c-7.811-7.811-20.474-7.811-28.284,0s-7.811,20.474,0,28.284
	l41.526,41.526C220.706,327.679,233.369,327.679,241.179,319.868z"/>
<g>
</g>
<g>
</g>
<g>
</g>
<g>
</g>
<g>
</g>
<g>
</g>
<g>
</g>
<g>
</g>
<g>
</g>
<g>
</g>
<g>
</g>
<g>
</g>
<g>
</g>
<g>
</g>
<g>
</g>
</svg>
