<svg height="480pt" viewBox="-96 0 480 480" width="480pt" xmlns="http://www.w3.org/2000/svg" xmlns:xlink="http://www.w3.org/1999/xlink"><linearGradient id="a" gradientUnits="userSpaceOnUse" x1="-111.99981" x2="377.64019" y1="240" y2="240"><stop offset="0" stop-color="#2dced9"/><stop offset=".155" stop-color="#45cdc4"/><stop offset=".484" stop-color="#83ca8d"/><stop offset=".956" stop-color="#e5c636"/><stop offset="1" stop-color="#efc62d"/></linearGradient><path d="m144 0c-79.492188.09375-143.90625 64.507812-144 144-.0507812 31.054688 10.035156 61.273438 28.726562 86.070312l39.730469 105.929688h-20.457031c-4.417969 0-8 3.582031-8 8v96c0 4.417969 3.582031 8 8 8h8.800781c3.828125 18.613281 20.199219 31.976562 39.199219 32h96c19-.023438 35.371094-13.386719 39.199219-32h8.800781c4.417969 0 8-3.582031 8-8v-96c0-4.417969-3.582031-8-8-8h-20.457031l39.730469-105.929688c18.691406-24.796874 28.777343-55.015624 28.726562-86.070312-.09375-79.492188-64.507812-143.90625-144-144zm48 464h-96c-10.167969-.011719-19.230469-6.417969-22.632812-16h141.265624c-3.402343 9.582031-12.464843 15.988281-22.632812 16zm40-32h-176v-16h176zm0-80v48h-176v-48zm-50.34375-165.65625c-3.125-3.121094-8.1875-3.121094-11.3125 0l-18.34375 18.34375v-68.6875c0-4.417969-3.582031-8-8-8s-8 3.582031-8 8v28.6875l-10.34375-10.34375c-3.140625-3.03125-8.128906-2.988281-11.214844.097656-3.085937 3.085938-3.128906 8.074219-.097656 11.214844l21.65625 21.65625v67.925781c-27.097656-4.628906-48-32.285156-48-65.703125 0-37.757812 31.824219-88.96875 56.753906-91.320312h.582032c5.976562 1.117187 11.425781 4.144531 15.535156 8.625 18.503906 16.824218 39.128906 54.945312 39.128906 82.695312 0 33.417969-20.902344 61.074219-48 65.703125v-27.925781l29.65625-29.65625c3.121094-3.125 3.121094-8.1875 0-11.3125zm-37.65625 85.65625c7.386719-.007812 14.714844-1.300781 21.65625-3.824219l-12.328125 67.824219h-18.65625l-12.328125-67.824219c6.941406 2.523438 14.269531 3.816407 21.65625 3.824219zm101.816406-50.664062c-.472656.621093-.851562 1.304687-1.128906 2.03125l-42.230469 112.632812h-32.855469l14.132813-77.753906c20.824219-16.664063 32.738281-42.042969 32.265625-68.710938 0-33.457031-23.023438-75.128906-44.359375-94.550781-7.246094-8.050781-17.5625-12.660156-28.390625-12.6875-36.050781 3.390625-71.25 64.269531-71.25 107.238281-.46875 26.667969 11.453125 52.050782 32.28125 68.710938l14.117188 77.753906h-32.855469l-42.230469-112.632812c-.277344-.726563-.65625-1.410157-1.128906-2.03125-17.015625-22.183594-26.222656-49.375-26.183594-77.335938 0-70.691406 57.308594-128 128-128s128 57.308594 128 128c.039062 27.960938-9.164062 55.152344-26.183594 77.335938zm0 0" fill="url(#a)"/></svg>