<svg height="464pt" viewBox="-96 0 464 464.23866" width="464pt" xmlns="http://www.w3.org/2000/svg"><path d="m272.117188 136.238281c.105468-59.328125-38.257813-111.875-94.800782-129.847656-56.539062-17.972656-118.203125 2.78125-152.375 51.277344-34.167968 48.5-32.957031 113.554687 2.992188 160.746093l44.183594 117.824219h128l44.1875-117.824219c18.046874-23.59375 27.820312-52.472656 27.8125-82.175781zm0 0" fill="#fcf05a"/><path d="m120.117188 344.238281c-3.863282-.003906-7.171876-2.765625-7.863282-6.566406l-16-88c-.789062-4.347656 2.09375-8.515625 6.441406-9.304687 4.347657-.792969 8.511719 2.09375 9.304688 6.441406l16 88c.785156 4.34375-2.097656 8.503906-6.441406 9.292968-.472656.09375-.957032.140626-1.441406.136719zm0 0" fill="#fdbd40"/><path d="m152.117188 344.238281c-.480469.003907-.964844-.042969-1.4375-.136719-4.328126-.808593-7.1875-4.964843-6.402344-9.292968l16-88c.792968-4.347656 4.957031-7.234375 9.304687-6.441406 4.347657.789062 7.230469 4.957031 6.441407 9.304687l-16 88c-.695313 3.816406-4.027344 6.582031-7.90625 6.566406zm0 0" fill="#fdbd40"/><path d="m40.117188 336.238281h192v96h-192zm0 0" fill="#aabece"/><path d="m184.117188 464.238281h-96c-17.671876 0-32-14.328125-32-32h160c0 17.671875-14.324219 32-32 32zm0 0" fill="#aabece"/><path d="m163.757812 87.222656c-7.246093-8.050781-17.558593-12.660156-28.390624-12.6875-36.046876 3.390625-71.25 64.273438-71.25 107.238282 0 45.472656 32.304687 82.464843 72 82.464843 39.699218 0 72-36.992187 72-82.464843 0-33.453126-23.023438-75.136719-44.359376-94.550782zm0 0" fill="#c8d952"/><path d="m173.773438 178.582031c-3.121094-3.121093-8.1875-3.121093-11.308594 0l-18.347656 18.34375v-68.6875c0-4.417969-3.578126-8-8-8-4.417969 0-8 3.582031-8 8v28.6875l-10.34375-10.34375c-3.136719-3.03125-8.128907-2.988281-11.210938.097657-3.085938 3.085937-3.132812 8.074218-.097656 11.214843l21.652344 21.65625v76.6875c0 4.417969 3.582031 8 8 8 4.421874 0 8-3.582031 8-8v-36.6875l29.65625-29.65625c3.125-3.125 3.125-8.1875 0-11.3125zm0 0" fill="#55b56a"/><path d="m40.117188 400.238281h192v32h-192zm0 0" fill="#7d8d9c"/></svg>