<?xml version="1.0" encoding="iso-8859-1"?>
<!-- Generator: Adobe Illustrator 21.0.0, SVG Export Plug-In . SVG Version: 6.00 Build 0)  -->
<svg version="1.1" id="Capa_1" xmlns="http://www.w3.org/2000/svg" xmlns:xlink="http://www.w3.org/1999/xlink" x="0px" y="0px"
	 viewBox="0 0 512 512" style="enable-background:new 0 0 512 512;" xml:space="preserve">
<path style="fill:#FFE477;" d="M380.604,51.924c-67.127-67.636-177.633-70.559-248.021-0.736
	c-84.076,83.4-62.812,221.261,37.659,277.602c15.088,8.46,24.46,24.302,24.46,41.341v76.25c0,8.374,6.789,15.163,15.163,15.163
	h92.258c8.374,0,15.163-6.789,15.163-15.163v-76.256c0-17.072,9.268-32.852,24.187-41.183
	C443.549,271.945,462.036,133.978,380.604,51.924z"/>
<path style="fill:#FFD422;" d="M341.477,328.946c-15.207,8.486-24.191,24.461-24.191,41.184v76.251
	c0,8.403-6.819,15.163-15.163,15.163h-46.127V0.023c46.153,0,90.788,17.814,124.612,51.899
	C461.987,133.953,443.609,271.915,341.477,328.946z"/>
<path style="fill:#00AA63;" d="M295.246,409.508h-78.5c-8.374,0-15.163,6.789-15.163,15.163v52.516
	c0,19.196,15.617,34.813,34.813,34.813h39.201c19.196,0,34.813-15.617,34.813-34.813v-52.516
	C310.409,416.297,303.62,409.508,295.246,409.508z"/>
<path style="fill:#007745;" d="M310.412,424.667v52.516c0,19.197-15.618,34.815-34.815,34.815h-19.601V409.504h39.253
	C303.619,409.504,310.412,416.297,310.412,424.667z"/>
<path style="fill:#FFF5CC;" d="M348.52,165.417h-52.992c-8.753,0-17.026,2.078-24.37,5.75c0-5.739,0-18.936,0-24.655
	c0-30.16-24.536-54.697-54.697-54.697H163.47c-8.374,0-15.163,6.789-15.163,15.163v17.63c0,30.16,24.537,54.697,54.697,54.697
	h37.828c0,31.324,0,165.111,0,184.032c0,8.374,6.789,15.163,15.163,15.163s15.163-6.789,15.163-15.163V252.907h37.828
	c30.16,0,54.696-24.536,54.696-54.696v-17.63C363.684,172.206,356.895,165.417,348.52,165.417z M178.633,124.608v-2.467h37.828
	c13.438,0,24.371,10.933,24.371,24.371v2.467h-37.828C189.566,148.979,178.633,138.046,178.633,124.608z M333.357,198.21
	c0,13.438-10.932,24.369-24.37,24.369h-37.828v-2.467c0-13.438,10.932-24.369,24.37-24.369h37.828V198.21z"/>
<path style="fill:#FFE477;" d="M348.522,165.415h-52.991c-8.754,0-17.034,2.082-24.373,5.752v-24.656
	c0-14.638-5.782-27.941-15.163-37.767V378.5c8.016,0,14.587-6.227,15.123-14.112c0.03-0.344,0.04-0.698,0.04-1.051v-110.43h37.827
	c30.165,0,54.699-24.534,54.699-54.699v-17.63C363.686,172.208,356.893,165.415,348.522,165.415z M333.359,198.208
	c0,13.445-10.938,24.373-24.372,24.373h-37.827v-2.467c0-13.435,10.928-24.373,24.373-24.373h37.827V198.208z"/>
<path style="fill:#00DD80;" d="M314.67,364.384H197.322c-8.374,0-15.163,6.789-15.163,15.163v70.907
	c0,8.374,6.789,15.163,15.163,15.163H314.67c8.374,0,15.163-6.789,15.163-15.163v-70.907
	C329.833,371.173,323.044,364.384,314.67,364.384z"/>
<path style="fill:#00AA63;" d="M329.831,379.551v70.904c0,8.37-6.783,15.163-15.163,15.163h-58.672v-101.23
	c61.244,0.102,58.919-0.234,61.614,0.283C324.585,366.046,329.831,372.182,329.831,379.551z"/>
<g>
</g>
<g>
</g>
<g>
</g>
<g>
</g>
<g>
</g>
<g>
</g>
<g>
</g>
<g>
</g>
<g>
</g>
<g>
</g>
<g>
</g>
<g>
</g>
<g>
</g>
<g>
</g>
<g>
</g>
</svg>
