<svg height="384pt" viewBox="0 0 384 384" width="384pt" xmlns="http://www.w3.org/2000/svg"><path d="m368 126.640625v130.71875c0 4.242187-1.679688 8.320313-4.71875 11.359375l-94.5625 94.5625c-3.039062 3.039062-7.117188 4.71875-11.359375 4.71875h-130.71875c-4.242187 0-8.320313-1.679688-11.359375-4.71875l-94.5625-94.5625c-2.957031-2.957031-4.640625-7.039062-4.640625-11.277344.082031-24 0-106.800781-.078125-130.882812 0-4.238282 1.679688-8.238282 4.71875-11.277344l94.5625-94.5625c3.039062-3.039062 7.117188-4.71875 11.359375-4.71875h130.71875c4.242187 0 8.320313 1.679688 11.359375 4.71875l94.5625 94.5625c3.039062 3.039062 4.71875 7.117188 4.71875 11.359375zm-162-30.800781c.078125-.558594.078125-1.199219.078125-1.761719 0-7.679687-6.15625-14.078125-14.078125-14.078125-8.480469 0-15.039062 7.441406-14 15.839844l14 128.160156zm-6 200.160156c0-4.398438-3.601562-8-8-8s-8 3.601562-8 8 3.601562 8 8 8 8-3.601562 8-8zm0 0" fill="#ff7043"/><g fill="#012e52"><path d="m280.03125 9.40625c-6.0625-6.070312-14.121094-9.40625-22.671875-9.40625h-130.71875c-8.550781 0-16.609375 3.335938-22.671875 9.40625l-94.5625 94.5625c-6.0625 6.0625-9.40625 14.085938-9.40625 22.640625.078125 24.0625.160156 106.796875.078125 130.832031 0 8.429688 3.402344 16.664063 9.328125 22.589844l94.5625 94.5625c6.0625 6.070312 14.121094 9.40625 22.671875 9.40625h130.71875c8.550781 0 16.609375-3.335938 22.671875-9.40625l94.5625-94.5625c6.0625-6.0625 9.40625-14.121094 9.40625-22.671875v-130.71875c0-8.550781-3.34375-16.609375-9.40625-22.671875zm71.9375 248-94.609375 94.59375-130.765625-.03125-94.515625-94.519531c.082031-24.074219 0-106.855469-.046875-130.855469l94.609375-94.59375 130.765625.03125 94.59375 94.609375zm0 0"/><path d="m192 64c-8.617188 0-16.839844 3.703125-22.550781 10.167969-5.714844 6.464843-8.386719 15.078125-7.351563 23.40625l14 128.160156c.886719 8.113281 7.734375 14.265625 15.902344 14.265625s15.015625-6.152344 15.902344-14.265625l13.9375-127.679687c.175781-1.261719.230468-2.703126.230468-3.976563.007813-16.582031-13.484374-30.078125-30.070312-30.078125zm0 0"/><path d="m192 272c-13.230469 0-24 10.769531-24 24s10.769531 24 24 24 24-10.769531 24-24-10.769531-24-24-24zm0 0"/></g></svg>