<svg height="448pt" viewBox="0 -84 448 448" width="448pt" xmlns="http://www.w3.org/2000/svg"><path d="m40 0h368c8.835938 0 16 7.164062 16 16v232h-400v-232c0-8.835938 7.164062-16 16-16zm0 0" fill="#acabb1"/><path d="m64 32h320c4.417969 0 8 3.582031 8 8v168c0 4.417969-3.582031 8-8 8h-320c-4.417969 0-8-3.582031-8-8v-168c0-4.417969 3.582031-8 8-8zm0 0" fill="#67cdd9"/><path d="m8 280h432c4.417969 0 8-3.582031 8-8v-24h-448v24c0 4.417969 3.582031 8 8 8zm0 0" fill="#898890"/><path d="m392 40v168c0 4.417969-3.582031 8-8 8h-248.320312c66.71875-31.921875 162.320312-105.839844 219.761718-184h28.558594c4.417969 0 8 3.582031 8 8zm0 0" fill="#62c0cc"/><path d="m192 248h64v8h-64zm0 0" fill="#787680"/><path d="m224 55.832031-80.167969 136.167969h160.335938zm0 0" fill="#ff7956"/><g fill="#ffe477"><path d="m216 96h16v48h-16zm0 0"/><path d="m216 152h16v16h-16zm0 0"/></g></svg>