<svg height="512pt" viewBox="-64 0 512 512" width="512pt" xmlns="http://www.w3.org/2000/svg"><path d="m383 0v512h-383v-400.761719l111.5-111.238281zm0 0" fill="#dee2f7"/><path d="m191.511719 0h191.488281v512h-191.488281zm0 0" fill="#c2c8f5"/><path d="m111.5 0v111.238281h-111.5zm0 0" fill="#959fef"/><path d="m87.5 381h206v30h-206zm0 0" fill="#ffb64f"/><path d="m87.5 440h206v30h-206zm0 0" fill="#ffb64f"/><path d="m341.941406 347.378906h-300.882812l150.441406-264.738281.011719.019531zm0 0" fill="#ff623f"/><path d="m341.941406 347.378906h-150.429687v-264.71875zm0 0" fill="#e50021"/><path d="m191.511719 381h101.988281v30h-101.988281zm0 0" fill="#ff9a00"/><path d="m191.511719 440h101.988281v30h-101.988281zm0 0" fill="#ff9a00"/><path d="m176.5 185.828125h30v76.5625h-30zm0 0" fill="#fffbfb"/><path d="m176.5 278.660156h30v30h-30zm0 0" fill="#fff"/><g fill="#dee2f7"><path d="m191.511719 185.828125h14.988281v76.5625h-14.988281zm0 0"/><path d="m191.511719 278.660156h14.988281v30h-14.988281zm0 0"/></g></svg>