<svg height="480pt" viewBox="-88 0 480 480" width="480pt" xmlns="http://www.w3.org/2000/svg" xmlns:xlink="http://www.w3.org/1999/xlink"><linearGradient id="a" gradientUnits="userSpaceOnUse" x1="152" x2="152" y1="481.544" y2="-9.688"><stop offset="0" stop-color="#006df0"/><stop offset="1" stop-color="#00e7f0"/></linearGradient><g fill="url(#a)"><path d="m280 48h-64v-40c0-4.417969-3.582031-8-8-8h-112c-4.417969 0-8 3.582031-8 8v40h-64c-13.253906 0-24 10.746094-24 24v384c0 13.253906 10.746094 24 24 24h256c13.253906 0 24-10.746094 24-24v-384c0-13.253906-10.746094-24-24-24zm-176-32h96v32h-96zm184 440c0 4.417969-3.582031 8-8 8h-256c-4.417969 0-8-3.582031-8-8v-384c0-4.417969 3.582031-8 8-8h256c4.417969 0 8 3.582031 8 8zm0 0"/><path d="m264 176h-224c-4.417969 0-8 3.582031-8 8v64c0 4.417969 3.582031 8 8 8h224c4.417969 0 8-3.582031 8-8v-64c0-4.417969-3.582031-8-8-8zm-8 64h-208v-48h208zm0 0"/><path d="m264 80h-224c-4.417969 0-8 3.582031-8 8v64c0 4.417969 3.582031 8 8 8h224c4.417969 0 8-3.582031 8-8v-64c0-4.417969-3.582031-8-8-8zm-8 64h-208v-48h208zm0 0"/><path d="m264 272h-224c-4.417969 0-8 3.582031-8 8v64c0 4.417969 3.582031 8 8 8h224c4.417969 0 8-3.582031 8-8v-64c0-4.417969-3.582031-8-8-8zm-8 64h-208v-48h208zm0 0"/><path d="m264 368h-224c-4.417969 0-8 3.582031-8 8v64c0 4.417969 3.582031 8 8 8h224c4.417969 0 8-3.582031 8-8v-64c0-4.417969-3.582031-8-8-8zm-8 64h-208v-48h208zm0 0"/></g></svg>