<svg height="490pt" viewBox="0 0 490.69213 490" width="490pt" xmlns="http://www.w3.org/2000/svg"><path d="m489.546875 475.101562-234.664063-469.332031c-3.628906-7.230469-15.46875-7.230469-19.09375 0l-234.667968 469.332031c-1.640625 3.308594-1.472656 7.234376.449218 10.371094 1.984376 3.15625 5.417969 5.074219 9.109376 5.074219h469.332031c3.691406 0 7.125-1.917969 9.089843-5.054687 1.941407-3.15625 2.089844-7.082032.445313-10.390626zm0 0" fill="#ffc107"/><path d="m245.347656 405.214844c-11.777344 0-21.335937 9.578125-21.335937 21.332031 0 11.757813 9.558593 21.335937 21.335937 21.335937 11.773438 0 21.332032-9.578124 21.332032-21.335937 0-11.753906-9.558594-21.332031-21.332032-21.332031zm0 21.332031h10.664063zm0 0" fill="#fafafa"/><path d="m245.347656 447.882812c-11.777344 0-21.335937-9.578124-21.335937-21.335937 0-11.753906 9.558593-21.332031 21.335937-21.332031 11.773438 0 21.332032 9.578125 21.332032 21.332031 0 11.757813-9.558594 21.335937-21.332032 21.335937zm0-21.355468c0 .019531 0 .019531 0 0l10.664063.019531zm0 0"/><path d="m245.347656 383.882812c-5.890625 0-10.667968-4.78125-10.667968-10.667968v-213.332032c0-5.890624 4.777343-10.667968 10.667968-10.667968 5.886719 0 10.664063 4.777344 10.664063 10.667968v213.332032c0 5.886718-4.777344 10.667968-10.664063 10.667968zm0 0"/><path d="m480.011719 490.546875h-469.332031c-3.691407 0-7.125-1.917969-9.089844-5.054687-1.941406-3.136719-2.109375-7.082032-.445313-10.367188l234.664063-469.332031c3.628906-7.234375 15.46875-7.234375 19.09375 0l234.667968 469.332031c1.640626 3.304688 1.472657 7.230469-.449218 10.367188-1.984375 3.136718-5.417969 5.054687-9.109375 5.054687zm-452.074219-21.332031h434.839844l-217.429688-434.816406zm0 0"/></svg>