<svg height="480pt" viewBox="-36 0 479 480" width="480pt" xmlns="http://www.w3.org/2000/svg" xmlns:xlink="http://www.w3.org/1999/xlink"><linearGradient id="a" gradientUnits="userSpaceOnUse" x1="204.498292" x2="204.498292" y1="476.736" y2="-24.424"><stop offset="0" stop-color="#006df0"/><stop offset="1" stop-color="#00e7f0"/></linearGradient><path d="m400.5 0h-392c-3.238281 0-6.152344 1.949219-7.390625 4.9375-1.238281 2.988281-.554687 6.429688 1.734375 8.71875l69.65625 69.65625v356.6875c.023438 22.082031 17.917969 39.972656 40 40h256c22.078125-.027344 39.972656-17.917969 40-40v-432c0-4.417969-3.582031-8-8-8zm-8 440c0 13.253906-10.746094 24-24 24h-256c-13.257812 0-24-10.746094-24-24v-8h56v-16h-56v-32h88v-16h-88v-32h56v-16h-56v-32h88v-16h-88v-32h56v-16h-56v-32h88v-16h-88v-96c-.003906-2.121094-.84375-4.15625-2.347656-5.65625l-58.34375-58.34375h364.691406zm0 0" fill="url(#a)"/></svg>