<svg height="479pt" viewBox="-135 0 479 479.96974" width="479pt" xmlns="http://www.w3.org/2000/svg" xmlns:xlink="http://www.w3.org/1999/xlink"><linearGradient id="a"><stop offset="0" stop-color="#006df0"/><stop offset="1" stop-color="#00e7f0"/></linearGradient><linearGradient id="b" gradientUnits="userSpaceOnUse" x1="-14.30713" x2="227.18087" xlink:href="#a" y1="295.969744" y2="295.969744"/><linearGradient id="c" gradientUnits="userSpaceOnUse" x1="-14.30713" x2="227.18087" xlink:href="#a" y1="311.969744" y2="311.969744"/><linearGradient id="d" gradientUnits="userSpaceOnUse" x1="-14.30713" x2="227.18087" xlink:href="#a" y1="25.729744" y2="25.729744"/><linearGradient id="e" gradientUnits="userSpaceOnUse" x1="-14.30713" x2="227.18087" xlink:href="#a" y1="53.065744" y2="53.065744"/><linearGradient id="f" gradientUnits="userSpaceOnUse" x1="-14.30713" x2="227.18087" xlink:href="#a" y1="80.449744" y2="80.449744"/><path d="m200.484375 143.96875h-48v-24c0-4.417969-3.582031-8-8-8h-80c-4.417969 0-8 3.582031-8 8v24h-48c-4.417969 0-8 3.582031-8 8v320c0 4.417969 3.582031 8 8 8h192c4.417969 0 8-3.582031 8-8v-320c0-4.417969-3.582031-8-8-8zm-128-16h64v16h-64zm120 336h-176v-304h176zm0 0" fill="url(#b)"/><path d="m128.484375 200.632812c.308594-3.679687-1.941406-7.097656-5.449219-8.261718-3.507812-1.164063-7.355468.222656-9.308594 3.359375l-80 128c-1.539062 2.460937-1.625 5.566406-.21875 8.105469 1.402344 2.542968 4.074219 4.125 6.976563 4.132812h47.304687l-7.304687 87.335938c-.304687 3.683593 1.949219 7.09375 5.457031 8.257812.820313.269531 1.679688.40625 2.542969.40625 2.757813 0 5.324219-1.421875 6.785156-3.757812l80-128c1.539063-2.46875 1.621094-5.574219.210938-8.121094-1.410157-2.542969-4.085938-4.121094-6.996094-4.121094h-47.304687zm25.601563 103.335938-54.890626 87.761719 5.289063-63.097657c.1875-2.234374-.574219-4.441406-2.09375-6.089843-1.523437-1.648438-3.664063-2.582031-5.90625-2.574219h-41.597656l54.855469-87.757812-5.257813 63.09375c-.1875 2.234374.574219 4.445312 2.09375 6.09375 1.523437 1.644531 3.664063 2.578124 5.90625 2.570312zm0 0" fill="url(#c)"/><path d="m33.148438 47.800781c18.320312-20.425781 44.519531-32.011719 71.957031-31.828125s53.476562 12.121094 71.523437 32.789063c2.976563 3.023437 7.792969 3.195312 10.980469.398437 3.1875-2.800781 3.632813-7.601562 1.019531-10.941406-21.058594-24.089844-51.425781-38.003906-83.421875-38.21484375-31.992187-.21484425-62.542969 13.28906275-83.921875 37.09374975-1.980468 2.113282-2.664062 5.132813-1.785156 7.890625.875 2.761719 3.175781 4.832031 6.011719 5.414063 2.835937.585937 5.765625-.410156 7.660156-2.601563zm0 0" fill="url(#d)"/><path d="m153.371094 70.671875c.246094.332031.511718.640625.800781.929687.097656.105469.175781.214844.28125.320313.652344.613281 1.398437 1.113281 2.214844 1.480469.175781.078125.351562.144531.535156.207031.890625.355469 1.835937.542969 2.792969.558594 2.128906 0 4.171875-.847657 5.671875-2.355469s2.339843-3.554688 2.328125-5.683594c-.007813-1-.210938-1.988281-.589844-2.910156-.152344-.320312-.324219-.628906-.519531-.921875-.207031-.449219-.453125-.875-.738281-1.277344-.144532-.179687-.320313-.335937-.472657-.515625l-.046875-.046875c-15.097656-17.953125-37.320312-28.371093-60.78125-28.484375-23.460937-.117187-45.785156 10.078125-61.058594 27.886719-2.746093 3.351563-2.320312 8.28125.957032 11.113281 3.277344 2.835938 8.214844 2.546875 11.140625-.652344 12.210937-14.242187 30.058593-22.414062 48.820312-22.34375 18.761719.066407 36.550781 8.363282 48.65625 22.695313zm0 0" fill="url(#e)"/><path d="m104.484375 63.96875c-15.027344-.023438-29.195313 7-38.273437 18.976562-2.394532 3.507813-1.632813 8.273438 1.738281 10.859376 3.367187 2.585937 8.167969 2.089843 10.9375-1.132813 6.179687-8.15625 15.878906-12.871094 26.113281-12.699219 10.230469.175782 19.765625 5.226563 25.660156 13.589844 1.625 2.402344 4.425782 3.738281 7.316406 3.488281 2.894532-.25 5.421876-2.046875 6.609376-4.695312 1.1875-2.648438.851562-5.730469-.886719-8.058594-9.019531-12.710937-23.625-20.28125-39.214844-20.328125zm0 0" fill="url(#f)"/></svg>