<svg height="533pt" viewBox="0 -4 533.99439 533" width="533pt" xmlns="http://www.w3.org/2000/svg"><path d="m427.195312 365.40625h-320.40625v-124.601562c0-88.476563 71.726563-160.203126 160.203126-160.203126 88.476562 0 160.203124 71.726563 160.203124 160.203126zm0 0" fill="#fcf05a"/><path d="m258.09375 169.605469h17.796875c24.578125 0 44.503906 19.921875 44.503906 44.5v151.300781h-106.804687v-151.300781c0-24.578125 19.925781-44.5 44.503906-44.5zm0 0" fill="#e97424"/><path d="m293.691406 231.90625c0 14.746094-11.953125 26.699219-26.699218 26.699219-14.746094 0-26.699219-11.953125-26.699219-26.699219s11.953125-26.703125 26.699219-26.703125c14.746093 0 26.699218 11.957031 26.699218 26.703125zm0 0" fill="#e97424"/><path d="m266.992188 267.503906c-19.660157 0-35.601563-15.9375-35.601563-35.597656 0-19.664062 15.941406-35.601562 35.601563-35.601562 19.660156 0 35.601562 15.9375 35.601562 35.601562-.019531 19.652344-15.949219 35.578125-35.601562 35.597656zm0-53.398437c-9.832032 0-17.800782 7.96875-17.800782 17.800781 0 9.828125 7.96875 17.796875 17.800782 17.796875 9.832031 0 17.800781-7.96875 17.800781-17.796875-.011719-9.828125-7.976563-17.789062-17.800781-17.800781zm0 0" fill="#fcf05a"/><path d="m266.992188 374.304688c-4.914063.003906-8.898438-3.976563-8.898438-8.886719 0-.003907 0-.007813 0-.011719v-106.800781c0-4.914063 3.984375-8.902344 8.898438-8.902344 4.914062 0 8.898437 3.988281 8.898437 8.902344v106.800781c.003906 4.914062-3.976563 8.898438-8.890625 8.898438 0 0-.003906 0-.007812 0zm0 0" fill="#fcf05a"/><path d="m169.089844 196.304688c-4.910156.003906-8.894532-3.976563-8.898438-8.890626 0-.003906 0-.003906 0-.011718 0-29.445313 19.964844-53.398438 44.5-53.398438 4.914063 0 8.898438 3.984375 8.898438 8.898438 0 4.917968-3.984375 8.902344-8.898438 8.902344-14.722656 0-26.699218 15.964843-26.699218 35.597656 0 4.914062-3.980469 8.898437-8.890626 8.902344-.003906 0-.007812 0-.011718 0zm0 0" fill="#e97424"/><g fill="#e9686a"><path d="m97.890625 107.304688c-2.363281 0-4.625-.9375-6.292969-2.609376l-89-89c-3.46875-3.480468-3.460937-9.117187.019532-12.585937 3.472656-3.464844 9.09375-3.464844 12.566406 0l89 89c3.476562 3.476563 3.472656 9.113281-.003906 12.585937-1.667969 1.671876-3.929688 2.609376-6.289063 2.609376zm0 0"/><path d="m124.582031 80.601562c-3.972656-.003906-7.460937-2.636718-8.550781-6.457031l-17.800781-62.300781c-1.351563-4.726562 1.390625-9.652344 6.117187-11.003906 4.730469-1.347656 9.65625 1.390625 11.003906 6.121094l17.800782 62.300781c1.34375 4.726562-1.394532 9.648437-6.121094 11.003906-.796875.222656-1.621094.335937-2.449219.335937zm0 0"/><path d="m80.097656 142.902344c-.828125 0-1.652344-.113282-2.449218-.335938l-62.300782-17.800781c-4.726562-1.351563-7.46875-6.277344-6.121094-11.003906 1.351563-4.726563 6.277344-7.46875 11.003907-6.121094l62.300781 17.800781c4.730469 1.347656 7.46875 6.273438 6.121094 11-1.089844 3.824219-4.578125 6.460938-8.554688 6.460938zm0 0"/><path d="m436.09375 107.304688c-4.914062-.003907-8.898438-3.988282-8.898438-8.902344 0-2.359375.9375-4.625 2.605469-6.292969l89.003907-89c3.46875-3.476563 9.105468-3.484375 12.582031-.011719 3.480469 3.472656 3.484375 9.105469.011719 12.585938-.003907.003906-.007813.007812-.011719.011718l-89 89c-1.667969 1.671876-3.933594 2.609376-6.292969 2.609376zm0 0"/><path d="m409.402344 80.601562c-.828125 0-1.652344-.113281-2.449219-.335937-4.726563-1.355469-7.464844-6.277344-6.121094-11.003906l17.800781-62.300781c1.347657-4.730469 6.273438-7.46875 11.003907-6.121094 4.726562 1.351562 7.46875 6.277344 6.117187 11.003906l-17.800781 62.300781c-1.089844 3.820313-4.578125 6.453125-8.550781 6.457031zm0 0"/><path d="m453.886719 142.902344c-4.917969-.003906-8.898438-3.992188-8.894531-8.90625 0-3.972656 2.636718-7.464844 6.460937-8.554688l62.300781-17.800781c4.726563-1.347656 9.652344 1.394531 11.003906 6.121094 1.347657 4.726562-1.394531 9.652343-6.121093 11.003906l-62.300781 17.800781c-.796876.222656-1.621094.335938-2.449219.335938zm0 0"/></g><path d="m106.789062 365.40625h320.40625v71.199219h-320.40625zm0 0" fill="#fdbd40"/><path d="m142.390625 436.605469h249.203125v89.003906h-249.203125zm0 0" fill="#dd3e46"/><path d="m391.59375 409.90625h-8.898438c-4.917968 0-8.902343-3.984375-8.902343-8.898438 0-4.917968 3.984375-8.902343 8.902343-8.902343h8.898438c4.914062 0 8.898438 3.984375 8.898438 8.902343 0 4.914063-3.984376 8.898438-8.898438 8.898438zm0 0" fill="#dd3e46"/></svg>