<svg height="458pt" viewBox="0 -22 458.98631 458" width="458pt" xmlns="http://www.w3.org/2000/svg"><path d="m410.933594 415.433594h-362.878906c-17.109376.019531-32.9375-9.070313-41.542969-23.859375-8.601563-14.785157-8.6875-33.035157-.21875-47.902344l181.519531-318.878906c8.503906-15.015625 24.425781-24.300781 41.679688-24.300781 17.257812 0 33.179687 9.285156 41.679687 24.300781l181.519531 318.878906c8.46875 14.867187 8.386719 33.117187-.21875 47.902344-8.605468 14.789062-24.429687 23.878906-41.539062 23.859375zm0 0" fill="#ffcd00"/><path d="m277.492188 159.433594h-80l-32 112h56l-16 80 88-112h-48zm0 0" fill="#ff5023"/></svg>