<svg height="480pt" viewBox="-20 0 480 480.00922" width="480pt" xmlns="http://www.w3.org/2000/svg" xmlns:xlink="http://www.w3.org/1999/xlink"><linearGradient id="a"><stop offset="0" stop-color="#006df0"/><stop offset="1" stop-color="#00e7f0"/></linearGradient><linearGradient id="b" gradientUnits="userSpaceOnUse" x1="219.994904" x2="219.994904" xlink:href="#a" y1="475.873223" y2="-11.454777"/><linearGradient id="c" gradientUnits="userSpaceOnUse" x1="254.026904" x2="254.026904" xlink:href="#a" y1="475.873223" y2="-11.454777"/><path d="m438.5625 175.671875c-11.480469-91.71875-84.128906-163.726563-175.945312-174.398437-56.613282-6.417969-113.277344 11.605468-155.78125 49.550781-42.503907 37.941406-66.8125 92.207031-66.832032 149.183593 0 3.875.121094 7.679688.367188 11.425782l-39.777344 97.558594c-1.003906 2.46875-.714844 5.273437.773438 7.480468 1.484374 2.210938 3.972656 3.535156 6.636718 3.535156h40v72c0 4.417969 3.582032 8 8 8h96v72c0 4.417969 3.582032 8 8 8h160c4.417969 0 8-3.582031 8-8v-60.460937c-.078125-18.40625 8.988282-35.652344 24.191406-46.027344 62.121094-42.070312 95.464844-115.375 86.367188-189.847656zm-95.359375 176.609375c-19.59375 13.347656-31.285156 35.554688-31.199219 59.265625v52.460937h-144v-72c0-4.417968-3.582031-8-8-8h-96v-72c0-4.417968-3.582031-8-8-8h-36.097656l36-88.261718c.472656-1.148438.667969-2.394532.570312-3.632813-.316406-3.957031-.472656-7.992187-.472656-12.105469.042969-52.316406 22.324219-102.148437 61.277344-137.070312 39.03125-35.234375 91.363281-51.921875 143.585938-45.777344 76.472656 8.742188 139.421874 64.160156 157.785156 138.910156 18.367187 74.746094-11.734375 153.027344-75.449219 196.210938zm0 0" fill="url(#b)"/><path d="m257.300781 48.929688c-5.746093-.597657-11.519531-.90625-17.296875-.921876-46.277344-.105468-90.050781 21.007813-118.777344 57.289063-5.679687 7.105469-6.746093 16.851563-2.734374 25.015625 3.984374 8.382812 12.445312 13.71875 21.726562 13.695312h143.070312c30.121094-.074218 58.164063 15.335938 74.25 40.800782l19.199219 30.234375c1.847657 2.90625 5.347657 4.304687 8.6875 3.46875 3.339844-.832031 5.773438-3.710938 6.042969-7.140625.765625-10.011719.566406-20.070313-.59375-30.042969-8.710938-69.632813-63.867188-124.304687-133.574219-132.398437zm113.742188 127.261718c-19.023438-30.078125-52.164063-48.273437-87.753907-48.183594h-143.070312c-3.136719.007813-5.992188-1.804687-7.320312-4.648437-1.339844-2.628906-1.007813-5.800781.847656-8.09375 25.699218-32.460937 64.855468-51.347656 106.257812-51.257813 5.210938.003907 10.421875.269532 15.605469.800782 61.976563 7.207031 111.132813 55.605468 119.296875 117.464844zm0 0" fill="url(#c)"/></svg>