<svg xmlns="http://www.w3.org/2000/svg" height="591pt" version="1.1" viewBox="1 -25 591.6 591" width="591pt">
<g id="surface1">
<path d="M 592 41.144531 C 592 18.597656 573.71875 0.316406 551.171875 0.316406 L 40.828125 0.316406 C 18.28125 0.316406 0 18.597656 0 41.144531 L 0 347.351562 L 592 347.351562 Z M 592 41.144531 " style=" stroke:none;fill-rule:nonzero;fill:rgb(26.27451%,59.607843%,81.960784%);fill-opacity:1;" />
<path d="M 0 347.351562 L 0 377.972656 C 0 400.519531 18.28125 418.800781 40.828125 418.800781 L 551.171875 418.800781 C 573.71875 418.800781 592 400.519531 592 377.972656 L 592 347.351562 Z M 0 347.351562 " style=" stroke:none;fill-rule:nonzero;fill:rgb(85.490196%,86.666667%,87.45098%);fill-opacity:1;" />
<path d="M 551.171875 0.316406 L 500.136719 0.316406 L 153.101562 347.351562 L 592 347.351562 L 592 41.144531 C 592 18.597656 573.71875 0.316406 551.171875 0.316406 Z M 551.171875 0.316406 " style=" stroke:none;fill-rule:nonzero;fill:rgb(24.313725%,54.901961%,78.039216%);fill-opacity:1;" />
<path d="M 365.589844 520.867188 L 347.035156 418.800781 L 244.964844 418.800781 L 226.410156 520.867188 L 193.929688 520.867188 L 193.929688 541.28125 L 398.070312 541.28125 L 398.070312 520.867188 Z M 365.589844 520.867188 " style=" stroke:none;fill-rule:nonzero;fill:rgb(85.490196%,86.666667%,87.45098%);fill-opacity:1;" />
<path d="M 165.800781 246.652344 L 285.792969 66.660156 C 289.527344 61.027344 297.132812 59.484375 302.765625 63.222656 C 304.136719 64.132812 305.300781 65.296875 306.207031 66.660156 L 426.199219 246.652344 C 429.957031 252.273438 428.433594 259.878906 422.8125 263.636719 C 420.789062 264.980469 418.421875 265.695312 415.992188 265.695312 L 175.988281 265.695312 C 169.21875 265.695312 163.738281 260.214844 163.738281 253.449219 C 163.738281 251.03125 164.453125 248.660156 165.800781 246.652344 Z M 165.800781 246.652344 " style=" stroke:none;fill-rule:nonzero;fill:rgb(99.215686%,71.372549%,18.431373%);fill-opacity:1;" />
<path d="M 285.792969 122.800781 L 306.207031 122.800781 L 306.207031 194.25 L 285.792969 194.25 Z M 285.792969 122.800781 " style=" stroke:none;fill-rule:nonzero;fill:rgb(7.058824%,37.647059%,60%);fill-opacity:1;" />
<path d="M 285.792969 214.660156 L 306.207031 214.660156 L 306.207031 235.074219 L 285.792969 235.074219 Z M 285.792969 214.660156 " style=" stroke:none;fill-rule:nonzero;fill:rgb(7.058824%,37.647059%,60%);fill-opacity:1;" />
<path d="M 352.597656 449.421875 L 347.035156 418.800781 L 244.964844 418.800781 L 239.402344 449.421875 Z M 352.597656 449.421875 " style=" stroke:none;fill-rule:nonzero;fill:rgb(78.039216%,79.215686%,80%);fill-opacity:1;" />
</g>
</svg>