<svg height="479pt" viewBox="-64 0 479 479.74076" width="479pt" xmlns="http://www.w3.org/2000/svg" xmlns:xlink="http://www.w3.org/1999/xlink"><linearGradient id="a"><stop offset="0" stop-color="#006df0"/><stop offset="1" stop-color="#00e7f0"/></linearGradient><linearGradient id="b" gradientUnits="userSpaceOnUse" x1="1.909041" x2="354.709041" xlink:href="#a" y1="192" y2="192"/><linearGradient id="c" gradientUnits="userSpaceOnUse" x1="1.909041" x2="354.709041" xlink:href="#a" y1="128" y2="128"/><linearGradient id="d" gradientUnits="userSpaceOnUse" x1="1.909041" x2="354.709041" xlink:href="#a" y1="376.44" y2="376.44"/><path d="m169.414062 380.40625c1.480469 2.242188 3.984376 3.585938 6.671876 3.585938 2.683593 0 5.191406-1.34375 6.671874-3.585938.34375-.519531 34.632813-52.550781 66.269532-110.398438 36.539062-67 55.058594-114.808593 55.058594-142.007812 0-70.691406-57.308594-128-128-128-70.691407 0-128 57.308594-128 128 0 27.199219 18.519531 75.007812 55.054687 142 31.640625 57.855469 65.929687 109.886719 66.273437 110.40625zm6.671876-364.40625c61.828124.066406 111.933593 50.171875 112 112 0 16.863281-9.207032 53.855469-53.097657 134.320312-23.007812 42.078126-47.429687 81.046876-58.902343 98.960938-11.464844-17.90625-35.882813-56.867188-58.898438-98.953125-43.894531-80.472656-53.101562-117.464844-53.101562-134.328125.066406-61.828125 50.171874-111.933594 112-112zm0 0" fill="url(#b)"/><path d="m176.085938 176c26.507812 0 48-21.492188 48-48s-21.492188-48-48-48c-26.511719 0-48 21.492188-48 48 .027343 26.5 21.5 47.972656 48 48zm0-80c17.671874 0 32 14.328125 32 32s-14.328126 32-32 32c-17.675782 0-32-14.328125-32-32s14.324218-32 32-32zm0 0" fill="url(#c)"/><path d="m348.363281 329.398438-79.476562-54.519532c-3.648438-2.496094-8.628907-1.566406-11.125 2.078125-2.5 3.644531-1.570313 8.625 2.074219 11.121094l70.648437 48.449219-154.398437 124.9375-154.402344-124.9375 71.203125-48.800782c3.644531-2.496093 4.574219-7.476562 2.074219-11.121093-2.5-3.648438-7.480469-4.574219-11.125-2.078125l-80 54.871094c-2.074219 1.429687-3.359376 3.753906-3.460938 6.273437-.097656 2.519531.992188 4.9375 2.949219 6.527344l167.761719 135.761719c2.933593 2.375 7.128906 2.375 10.0625 0l167.738281-135.746094c1.953125-1.589844 3.046875-4.007813 2.945312-6.527344-.097656-2.519531-1.382812-4.84375-3.460937-6.273438zm0 0" fill="url(#d)"/></svg>