<svg height="512pt" viewBox="-84 0 512 512" width="512pt" xmlns="http://www.w3.org/2000/svg"><g fill="#ff9a00"><path d="m229.441406 437v17.78125c0 31.546875-25.671875 57.21875-57.222656 57.21875-31.546875 0-57.21875-25.671875-57.21875-57.21875v-17.78125zm0 0"/><path d="m157.21875 0h30v65.890625h-30zm0 0"/><path d="m48.175781 22.179688 26.339844-14.359376 32.851563 60.265626-26.339844 14.359374zm0 0"/></g><path d="m237.074219 68.105469 32.851562-60.265625 26.339844 14.359375-32.851563 60.265625zm0 0" fill="#e67500"/><path d="m172.21875 0h15v65.890625h-15zm0 0" fill="#e67500"/><path d="m229.441406 437v17.78125c0 31.546875-25.671875 57.21875-57.222656 57.21875v-75zm0 0" fill="#e67500"/><path d="m344.441406 452h-344.441406l28.050781-72.101562 6.929688-17.820313v-119.429687c0-75.667969 61.558593-137.238282 137.238281-137.238282s137.242188 61.570313 137.242188 137.238282v119.429687l6.929687 17.820313zm0 0" fill="#ffb64f"/><path d="m344.441406 452h-172.222656v-346.589844c75.679688 0 137.242188 61.570313 137.242188 137.238282v119.429687l6.929687 17.820313zm0 0" fill="#ff9a00"/><path d="m316.390625 379.898438h-288.339844l6.929688-17.820313v-12.179687h274.480469v12.179687zm0 0" fill="#fff4ca"/><path d="m316.390625 379.898438h-144.171875v-30h137.242188v12.179687zm0 0" fill="#ffdaa8"/></svg>