<svg xmlns="http://www.w3.org/2000/svg" height="512pt" version="1.1" viewBox="-28 0 511 512" width="512pt">
<g id="surface1">
<path d="M 376.496094 30.191406 C 375.28125 13.179688 361.128906 0 344.074219 0 L 112.039062 0 C 94.984375 0 80.828125 13.179688 79.613281 30.191406 L 57.390625 341.332031 L 398.722656 341.332031 Z M 376.496094 30.191406 " style=" stroke:none;fill-rule:nonzero;fill:rgb(100%,50.196078%,52.941176%);fill-opacity:1;" />
<path d="M 203.675781 203.175781 L 252.4375 203.175781 L 252.4375 308.824219 L 203.675781 308.824219 Z M 203.675781 203.175781 " style=" stroke:none;fill-rule:nonzero;fill:rgb(86.27451%,27.45098%,33.333333%);fill-opacity:1;" />
<path d="M 112.039062 0 C 94.984375 0 80.828125 13.179688 79.613281 30.191406 L 57.390625 341.332031 L 154.914062 341.332031 L 163.039062 0 Z M 112.039062 0 " style=" stroke:none;fill-rule:nonzero;fill:rgb(90.196078%,39.215686%,43.137255%);fill-opacity:1;" />
<path d="M 419.328125 356.28125 C 418.648438 347.839844 411.597656 341.335938 403.128906 341.335938 L 52.984375 341.335938 C 44.515625 341.335938 37.464844 347.839844 36.785156 356.28125 L 24.882812 503.871094 L 431.230469 503.871094 Z M 419.328125 356.28125 " style=" stroke:none;fill-rule:nonzero;fill:rgb(36.470588%,32.54902%,37.647059%);fill-opacity:1;" />
<path d="M 296.765625 65.621094 C 271.550781 68.566406 249.441406 81.558594 234.464844 100.480469 C 231.152344 104.664062 224.964844 104.664062 221.648438 100.480469 C 206.671875 81.558594 184.5625 68.570312 159.351562 65.621094 C 154.710938 65.078125 150.503906 68.417969 150.136719 73.074219 C 147.722656 103.675781 139.128906 212.496094 136.71875 243.019531 C 136.355469 247.613281 139.875 251.59375 144.476562 251.832031 C 145.78125 251.898438 147.089844 251.9375 148.410156 251.9375 C 178.140625 251.9375 204.558594 238.015625 221.667969 216.375 C 224.96875 212.199219 231.148438 212.199219 234.449219 216.375 C 251.558594 238.015625 277.976562 251.9375 307.707031 251.9375 C 309.027344 251.9375 310.335938 251.898438 311.640625 251.832031 C 316.242188 251.59375 319.761719 247.613281 319.398438 243.015625 L 305.976562 73.078125 C 305.609375 68.425781 301.402344 65.078125 296.765625 65.621094 Z M 296.765625 65.621094 " style=" stroke:none;fill-rule:nonzero;fill:rgb(90.196078%,39.215686%,43.137255%);fill-opacity:1;" />
<path d="M 139.382812 446.273438 L 141.675781 341.332031 L 52.984375 341.332031 C 44.515625 341.332031 37.464844 347.839844 36.785156 356.28125 L 24.882812 503.871094 L 431.230469 503.871094 L 429.265625 479.492188 L 171.882812 479.492188 C 153.652344 479.492188 138.984375 464.503906 139.382812 446.273438 Z M 139.382812 446.273438 " style=" stroke:none;fill-rule:nonzero;fill:rgb(29.411765%,24.705882%,30.588235%);fill-opacity:1;" />
<path d="M 447.484375 512 L 8.628906 512 C 4.136719 512 0.5 508.359375 0.5 503.871094 C 0.5 499.386719 4.136719 495.746094 8.628906 495.746094 L 447.484375 495.746094 C 451.976562 495.746094 455.609375 499.386719 455.609375 503.871094 C 455.609375 508.359375 451.976562 512 447.484375 512 Z M 447.484375 512 " style=" stroke:none;fill-rule:nonzero;fill:rgb(36.470588%,32.54902%,37.647059%);fill-opacity:1;" />
<path d="M 74.929688 323.921875 L 73.683594 341.332031 L 382.425781 341.332031 L 381.183594 323.921875 C 380.574219 315.414062 373.496094 308.824219 364.96875 308.824219 L 91.140625 308.824219 C 82.613281 308.824219 75.535156 315.414062 74.929688 323.921875 Z M 74.929688 323.921875 " style=" stroke:none;fill-rule:nonzero;fill:rgb(86.27451%,27.45098%,33.333333%);fill-opacity:1;" />
<path d="M 91.140625 308.824219 C 82.613281 308.824219 75.535156 315.414062 74.929688 323.921875 L 73.683594 341.332031 L 154.910156 341.332031 L 155.6875 308.824219 Z M 91.140625 308.824219 " style=" stroke:none;fill-rule:nonzero;fill:rgb(74.509804%,25.490196%,31.372549%);fill-opacity:1;" />
<path d="M 161.472656 65.894531 C 160.757812 65.792969 160.070312 65.707031 159.347656 65.621094 C 154.710938 65.078125 150.503906 68.425781 150.136719 73.078125 L 136.71875 243.015625 C 136.355469 247.613281 139.871094 251.59375 144.476562 251.832031 C 145.777344 251.898438 147.089844 251.9375 148.40625 251.9375 C 151.339844 251.9375 154.179688 251.804688 157.042969 251.539062 Z M 161.472656 65.894531 " style=" stroke:none;fill-rule:nonzero;fill:rgb(86.27451%,27.45098%,33.333333%);fill-opacity:1;" />
<path d="M 236.183594 98.371094 C 235.621094 99.039062 235.003906 99.796875 234.464844 100.480469 C 231.148438 104.664062 224.960938 104.664062 221.648438 100.480469 C 221.105469 99.796875 220.488281 99.039062 219.929688 98.371094 L 219.929688 218.519531 C 220.488281 217.847656 221.121094 217.0625 221.664062 216.378906 C 224.96875 212.199219 231.144531 212.199219 234.449219 216.378906 C 234.992188 217.0625 235.621094 217.847656 236.183594 218.519531 Z M 236.183594 98.371094 " style=" stroke:none;fill-rule:nonzero;fill:rgb(86.27451%,27.45098%,33.333333%);fill-opacity:1;" />
</g>
</svg>