<svg height="480pt" viewBox="-1 0 480 480.00032" width="480pt" xmlns="http://www.w3.org/2000/svg" xmlns:xlink="http://www.w3.org/1999/xlink"><linearGradient id="a"><stop offset="0" stop-color="#006df0"/><stop offset="1" stop-color="#00e7f0"/></linearGradient><linearGradient id="b" gradientUnits="userSpaceOnUse" x1="103.652277" x2="103.652277" xlink:href="#a" y1="482.488" y2="-54.576"/><linearGradient id="c" gradientUnits="userSpaceOnUse" x1="238.724277" x2="238.724277" xlink:href="#a" y1="482.488" y2="-54.576"/><linearGradient id="d" gradientUnits="userSpaceOnUse" x1="373.452277" x2="373.452277" xlink:href="#a" y1="482.488" y2="-54.576"/><path d="m133.589844 432h-45.738282l-6.230468-41.527344c-.664063-4.371094-4.742188-7.375-9.113282-6.710937-4.371093.660156-7.375 4.742187-6.710937 9.109375l7.246094 48.34375c.601562 3.910156 3.972656 6.796875 7.929687 6.785156h52.617188c4.417968 0 8-3.582031 8-8s-3.582032-8-8-8zm0 0" fill="url(#b)"/><path d="m477.453125 376c.007813-24.023438-8.320313-47.308594-23.570313-65.871094l20.761719-138.542968c1.027344-6.914063-1.003906-13.933594-5.5625-19.230469-4.5625-5.296875-11.199219-8.34375-18.191406-8.355469h-5.4375v-72c0-13.253906-10.746094-24-24-24h-197.335937l-57.601563-43.199219c-4.15625-3.109375-9.207031-4.7929685-14.398437-4.800781h-98.664063c-13.253906 0-24 10.746094-24 24v120h-5.441406c-6.988281.011719-13.625 3.0625-18.183594 8.359375-4.5625 5.296875-6.59375 12.3125-5.566406 19.226563l43.199219 288c1.726562 11.769531 11.855468 20.476562 23.75 20.414062h306.242187c2.414063 0 4.816406-.082031 7.199219-.246094 14.277344-1.039062 28.195312-4.945312 40.929687-11.488281 2.097657-1.105469 4.167969-2.28125 6.207031-3.53125 30.960938-18.828125 49.804688-52.496094 49.664063-88.734375zm-424-360h98.664063c1.730468.003906 3.414062.566406 4.800781 1.601562l59.734375 44.796876c1.382812 1.039062 3.070312 1.601562 4.800781 1.601562h200c4.417969 0 8 3.582031 8 8v40h-384v-88c0-4.417969 3.582031-8 8-8zm-8 112h384v16h-384zm272.625 336h-250.867187c-3.957032.007812-7.328126-2.878906-7.925782-6.792969l-43.199218-288c-.355469-2.308593.320312-4.65625 1.84375-6.425781 1.523437-1.769531 3.746093-2.785156 6.082031-2.78125h426.878906c2.335937.007812 4.550781 1.03125 6.070313 2.800781 1.523437 1.769531 2.199218 4.113281 1.859374 6.421875l-18.96875 126.699219c-1-.800781-2.0625-1.554687-3.09375-2.335937-1.035156-.785157-1.808593-1.410157-2.738281-2.074219-2.152343-1.535157-4.367187-2.960938-6.625-4.328125-.628906-.382813-1.238281-.800782-1.878906-1.183594-2.917969-1.683594-5.914063-3.226562-8.992187-4.625-.710938-.320312-1.457032-.582031-2.175782-.894531-2.398437-1.015625-4.800781-1.960938-7.199218-2.800781-1.097657-.375-2.199219-.695313-3.304688-1.039063-2.132812-.65625-4.304688-1.246094-6.519531-1.769531-1.183594-.277344-2.359375-.550782-3.550781-.800782-2.289063-.453124-4.59375-.796874-6.914063-1.109374-1.0625-.136719-2.117187-.320313-3.199219-.425782-3.390625-.328125-6.792968-.535156-10.207031-.535156-57.410156.066406-103.933594 46.589844-104 104 0 3.199219.199219 6.34375.480469 9.464844.0625.726562.132812 1.445312.214844 2.167968.335937 3.054688.800781 6.078126 1.382812 9.054688.074219.34375.160156.671875.234375 1.015625.582031 2.722656 1.285156 5.394531 2.070313 8 .191406.648437.375 1.296875.585937 1.9375.902344 2.832031 1.910156 5.597656 3.054687 8.328125.199219.488281.433594.960938.640626 1.445312 1.066406 2.402344 2.203124 4.753907 3.40625 7.058594.273437.511719.527343 1.039063.800781 1.550782 1.417969 2.5625 2.933593 5.050781 4.542969 7.472656.351562.519531.722656 1.023437 1.074218 1.535156 1.496094 2.152344 3.054688 4.257812 4.703125 6.289062.28125.34375.542969.703126.800781 1.046876 1.863282 2.242187 3.839844 4.386718 5.878907 6.464843.472656.480469.960937.953125 1.441406 1.425781 1.992187 1.941407 4.039063 3.820313 6.175781 5.597657l.472656.417969c2.269532 1.871093 4.644532 3.613281 7.070313 5.285156l1.71875 1.167968c.648437.472657 1.25.882813 1.875 1.273438zm101.335937-12.886719c-31.792968 19.402344-72.355468 16.695313-101.28125-6.765625-28.929687-23.460937-39.953124-62.589844-27.53125-97.703125 12.425782-35.109375 45.605469-58.597656 82.851563-58.644531 3.125 0 6.25.167969 9.359375.503906 21.859375 2.378906 42.054688 12.792969 56.671875 29.214844 17.175781 19.53125 24.855469 45.648438 20.984375 71.363281-3.871094 25.71875-18.894531 48.417969-41.054688 62.03125zm0 0" fill="url(#c)"/><path d="m437.453125 368h-56v-56c0-4.417969-3.582031-8-8-8s-8 3.582031-8 8v56h-56c-4.417969 0-8 3.582031-8 8s3.582031 8 8 8h56v56c0 4.417969 3.582031 8 8 8s8-3.582031 8-8v-56h56c4.417969 0 8-3.582031 8-8s-3.582031-8-8-8zm0 0" fill="url(#d)"/></svg>