<svg height="480pt" viewBox="-1 0 480 480.00036" width="480pt" xmlns="http://www.w3.org/2000/svg" xmlns:xlink="http://www.w3.org/1999/xlink"><linearGradient id="a"><stop offset="0" stop-color="#006df0"/><stop offset="1" stop-color="#00e7f0"/></linearGradient><linearGradient id="b" gradientUnits="userSpaceOnUse" x1="238.724297" x2="238.724297" xlink:href="#a" y1="504.4" y2="-79.696"/><linearGradient id="c" gradientUnits="userSpaceOnUse" x1="373.452297" x2="373.452297" xlink:href="#a" y1="504.4" y2="-79.696"/><linearGradient id="d" gradientUnits="userSpaceOnUse" x1="103.652297" x2="103.652297" xlink:href="#a" y1="504.4" y2="-79.696"/><path d="m477.453125 376c.007813-24.023438-8.320313-47.308594-23.570313-65.871094l20.761719-138.542968c1.027344-6.914063-1.003906-13.933594-5.5625-19.230469-4.5625-5.296875-11.199219-8.34375-18.191406-8.355469h-5.4375v-72c0-13.253906-10.746094-24-24-24h-197.335937l-57.601563-43.199219c-4.160156-3.105469-9.207031-4.7890622-14.398437-4.800781h-98.664063c-13.253906 0-24 10.746094-24 24v120h-5.441406c-6.988281.011719-13.625 3.0625-18.183594 8.359375-4.5625 5.296875-6.59375 12.3125-5.566406 19.226563l43.199219 288c1.722656 11.773437 11.851562 20.480468 23.75 20.414062 0 0 311.042968-.078125 313.441406-.246094 14.289062-.960937 28.21875-4.875 40.921875-11.488281 2.097656-1.105469 4.167969-2.28125 6.207031-3.53125 30.964844-18.828125 49.808594-52.496094 49.671875-88.734375zm-424-360h98.664063c1.730468.007812 3.410156.566406 4.800781 1.601562l59.734375 44.796876c1.382812 1.039062 3.070312 1.601562 4.800781 1.601562h200c4.417969 0 8 3.582031 8 8v40h-384v-88c0-4.417969 3.582031-8 8-8zm-8 112h384v16h-384zm272.625 336h-250.867187c-3.957032.007812-7.328126-2.878906-7.925782-6.792969l-43.199218-288c-.339844-2.304687.339843-4.644531 1.859374-6.414062 1.523438-1.765625 3.734376-2.785157 6.066407-2.792969h426.878906c2.335937.011719 4.546875 1.035156 6.066406 2.804688 1.523438 1.769531 2.203125 4.109374 1.863281 6.417968l-18.96875 126.699219c-.992187-.800781-2.054687-1.546875-3.078124-2.320313-1.023438-.777343-1.832032-1.425781-2.777344-2.097656-2.113282-1.511718-4.296875-2.917968-6.511719-4.265625-.671875-.40625-1.3125-.855469-1.992187-1.246093-2.910157-1.679688-5.894532-3.214844-8.953126-4.609376-.75-.335937-1.527343-.613281-2.277343-.933593-2.34375-1-4.707031-1.9375-7.105469-2.761719-1.121094-.382812-2.238281-.710938-3.367188-1.054688-2.132812-.65625-4.289062-1.242187-6.464843-1.761718-1.191407-.277344-2.398438-.550782-3.574219-.800782-2.28125-.453124-4.585938-.796874-6.898438-1.109374-1.0625-.136719-2.121093-.320313-3.199218-.425782-3.382813-.328125-6.785156-.535156-10.199219-.535156-57.410156.066406-103.933594 46.589844-104 104 0 3.199219.199219 6.34375.480469 9.472656.0625.71875.132812 1.4375.214844 2.160156.335937 3.054688.800781 6.078126 1.382812 9.054688.066406.335938.160156.671875.234375 1.007812.582031 2.730469 1.285156 5.402344 2.070313 8 .191406.640626.375 1.289063.578124 1.921876.910157 2.832031 1.929688 5.613281 3.0625 8.34375.199219.480468.421876.941406.632813 1.414062 1.066406 2.417969 2.207031 4.785156 3.421875 7.105469.273438.503906.519531 1.007812.800781 1.511719 1.414063 2.570312 2.9375 5.070312 4.566407 7.496093.335937.511719.691406 1 1.042968 1.503907 1.503906 2.175781 3.082032 4.289062 4.734375 6.335937.273438.335937.527344.679687.800781 1.007813 1.871094 2.257812 3.847657 4.40625 5.902344 6.496093l1.410156 1.390625c2 1.960938 4.0625 3.855469 6.214844 5.648438l.441406.386718c2.277344 1.871094 4.65625 3.621094 7.09375 5.300782.5625.394531 1.121094.800781 1.6875 1.144531.570313.34375 1.226563.898437 1.851563 1.296875zm101.335937-12.886719c-31.792968 19.402344-72.355468 16.695313-101.28125-6.765625-28.929687-23.460937-39.953124-62.589844-27.53125-97.703125 12.425782-35.109375 45.605469-58.597656 82.851563-58.644531 3.125 0 6.25.167969 9.359375.503906 21.015625 2.316406 40.515625 12.070313 54.976562 27.496094.542969.585938 1.144532 1.097656 1.679688 1.695312 17.183594 19.527344 24.871094 45.648438 21.003906 71.371094-3.867187 25.722656-18.894531 48.425782-41.058594 62.039063zm0 0" fill="url(#b)"/><path d="m437.453125 368h-128c-4.417969 0-8 3.582031-8 8s3.582031 8 8 8h128c4.417969 0 8-3.582031 8-8s-3.582031-8-8-8zm0 0" fill="url(#c)"/><path d="m133.589844 432h-45.738282l-6.230468-41.527344c-.664063-4.371094-4.742188-7.375-9.113282-6.710937-4.371093.660156-7.375 4.742187-6.710937 9.109375l7.246094 48.34375c.601562 3.910156 3.972656 6.796875 7.929687 6.785156h52.617188c4.417968 0 8-3.582031 8-8s-3.582032-8-8-8zm0 0" fill="url(#d)"/></svg>